Coordinates
version=1
nRows=38
nColumns=12
inDegrees=yes

Units are S.I. units (second, meters, Newtons, ...)
Angles are in degrees

endheader
time	SC_y	SC_z	SC_x	AC_y	AC_z	AC_x	GH_y	GH_z	GH_yy	EL_x	PS_y
       0.0              -40.37          38.36          15.23          50.56          7.964        -0.8445         -117.1          50.43          29.25          133.0          148.5
   0.02832              -40.37          38.36          15.24          50.57          7.962        -0.8442         -117.0          50.44          29.26          133.0          148.5
   0.05664              -40.37          38.36          15.25          50.57          7.961        -0.8438         -117.0          50.44          29.26          133.0          148.5
   0.08495              -40.38          38.36          15.26          50.57          7.959        -0.8434         -116.9          50.44          29.27          132.9          148.4
    0.1133              -40.38          38.36          15.27          50.57          7.957         -0.843         -116.9          50.45          29.27          132.9          148.4
    0.1416              -40.38          38.36          15.28          50.58          7.955        -0.8425         -116.9          50.45          29.27          132.9          148.4
    0.1699              -40.38          38.35          15.29          50.58          7.953         -0.842         -116.8          50.46          29.28          132.9          148.4
    0.1982              -40.38          38.35           15.3          50.59          7.951        -0.8415         -116.7          50.46          29.28          132.9          148.3
    0.2265              -40.38          38.35          15.31          50.59          7.948         -0.841         -116.7          50.47          29.29          132.9          148.3
    0.2549              -40.38          38.35          15.33          50.59          7.946        -0.8404         -116.6          50.48          29.29          132.8          148.3
    0.2832              -40.38          38.34          15.34           50.6          7.943        -0.8397         -116.5          50.48           29.3          132.8          148.2
    0.3115              -40.38          38.34          15.36           50.6           7.94         -0.839         -116.5          50.49          29.31          132.8          148.2
    0.3398              -40.38          38.34          15.38          50.61          7.937        -0.8383         -116.4           50.5          29.31          132.8          148.2
    0.3681              -40.38          38.33           15.4          50.62          7.933        -0.8375         -116.3          50.51          29.32          132.7          148.1
    0.3964              -40.38          38.33          15.42          50.62           7.93        -0.8366         -116.2          50.52          29.33          132.7          148.1
    0.4248              -40.39          38.33          15.44          50.63          7.926        -0.8357         -116.1          50.53          29.34          132.7          148.0
    0.4531              -40.39          38.32          15.46          50.64          7.921        -0.8347         -116.0          50.54          29.35          132.6          148.0
    0.4814              -40.39          38.32          15.49          50.65          7.916        -0.8336         -115.9          50.55          29.36          132.6          147.9
    0.5097              -40.39          38.31          15.52          50.66          7.911        -0.8323         -115.7          50.56          29.37          132.5          147.8
     0.538              -40.39          38.31          15.55          50.67          7.905         -0.831         -115.6          50.58          29.39          132.5          147.8
    0.5664               -40.4           38.3          15.58          50.68          7.899        -0.8296         -115.4           50.6           29.4          132.4          147.7
    0.5947               -40.4          38.29          15.62          50.69          7.892        -0.8279         -115.3          50.61          29.42          132.4          147.6
     0.623               -40.4          38.29          15.66           50.7          7.884        -0.8262         -115.1          50.63          29.43          132.3          147.5
    0.6513               -40.4          38.28          15.71          50.72          7.876        -0.8242         -114.8          50.65          29.45          132.3          147.4
    0.6796              -40.41          38.27          15.76          50.74          7.866         -0.822         -114.6          50.68          29.47          132.2          147.3
    0.7079              -40.41          38.26          15.82          50.75          7.856        -0.8196         -114.3           50.7           29.5          132.1          147.1
    0.7363              -40.41          38.25          15.88          50.77          7.844        -0.8168         -114.0          50.73          29.52          132.0          147.0
    0.7646              -40.42          38.23          15.96           50.8          7.831        -0.8138         -113.7          50.77          29.55          131.9          146.8
    0.7929              -40.42          38.22          16.04          50.83          7.816        -0.8103         -113.3          50.81          29.59          131.8          146.6
    0.8212              -40.43           38.2          16.13          50.86          7.799        -0.8063         -112.9          50.85          29.63          131.6          146.4
    0.8495              -40.44          38.18          16.24          50.89          7.779        -0.8018         -112.4           50.9          29.67          131.5          146.2
    0.8779              -40.44          38.16          16.36          50.93          7.757        -0.7967         -111.8          50.95          29.72          131.3          145.9
    0.9062              -40.45          38.14           16.5          50.98          7.731        -0.7907         -111.2          51.02          29.78          131.1          145.6
    0.9345              -40.46          38.11          16.66          51.03          7.701        -0.7838         -110.4          51.09          29.84          130.8          145.2
    0.9628              -40.47          38.07          16.85          51.09          7.666        -0.7756         -109.5          51.18          29.92          130.5          144.8
    0.9911              -40.49          38.03          17.08          51.16          7.624        -0.7661         -108.5          51.29          30.02          130.2          144.2
     1.019               -40.5          37.98          17.35          51.25          7.575        -0.7547         -107.2          51.41          30.13          129.8          143.6
     1.048              -40.52          37.93          17.67          51.36          7.516        -0.7411         -105.8          51.56          30.26          129.3          142.9
